<svg xmlns="http://www.w3.org/2000/svg" viewBox="0 0 24 24" id="gatorade">
  <path fill="#F44336" d="m22.38 1.7-1.5 1.71c.15.02.29.1.38.23l.56.85c.13.2.1.46-.06.63L3.01 23.85c-.1.1-.22.15-.36.15H2.6a.51.51 0 0 1-.36-.22l-.52-.79L17.67.56l3.68-.55c.19-.04.39.05.49.21l.58.88c.12.18.1.43-.04.6z"></path>
  <path fill="#FF9800" d="M17.67.56 1.72 22.99l-.14-.2a.493.493 0 0 1-.02-.51c.05-.11 5.16-10 6.97-13.54l-.61.09c-.2.03-.39-.05-.5-.22l-.55-.84a.516.516 0 0 1-.03-.51l2.78-5.28c.08-.14.22-.24.37-.26L17.67.56z"></path>
</svg>
